<?xml version="1.0" encoding="UTF-8" standalone="no"?>
<svg width="472px" height="329px" viewBox="0 0 472 329" version="1.1" xmlns="http://www.w3.org/2000/svg" xmlns:xlink="http://www.w3.org/1999/xlink" xmlns:sketch="http://www.bohemiancoding.com/sketch/ns">
    <title>schema_threads</title>
    <description>Created with Sketch (http://www.bohemiancoding.com/sketch)</description>
    <defs></defs>
    <g id="Page-1" stroke="none" stroke-width="1" fill="none" fill-rule="evenodd" sketch:type="MSPage">
        <g id="1024-x-768" sketch:type="MSArtboardGroup" transform="translate(-380.000000, -217.000000)">
            <path d="M388.998856,284 L826,284" id="Line" stroke="#979797" stroke-width="2" stroke-linecap="square" fill="#979797" sketch:type="MSShapeGroup"></path>
            <path id="Line-decoration-1" d="M825.998871,284 C822.218871,282.95 818.978871,282.05 815.19887,281 C815.19887,283.1 815.19887,284.9 815.19887,287 C818.978871,285.95 822.218871,285.05 825.998871,284 C825.998871,284 825.998871,284 825.998871,284 Z" stroke="#979797" stroke-width="2" stroke-linecap="square" fill="#979797"></path>
            <path d="M404.219715,375 L588.780285,375" id="Line-copy" stroke="#979797" stroke-width="2" stroke-linecap="square" fill="#979797" sketch:type="MSShapeGroup"></path>
            <path id="Line-copy-decoration-1" d="M588.219708,375 C584.439708,373.95 581.199708,373.05 577.419708,372 C577.419708,374.1 577.419708,375.9 577.419708,378 C581.199708,376.95 584.439708,376.05 588.219708,375 C588.219708,375 588.219708,375 588.219708,375 Z" stroke="#979797" stroke-width="2" stroke-linecap="square" fill="#979797"></path>
            <path d="M404.219715,415 L588.780285,415" id="Line-copy-2" stroke="#979797" stroke-width="2" stroke-linecap="square" fill="#979797" sketch:type="MSShapeGroup"></path>
            <path id="Line-copy-2-decoration-1" d="M588.219708,415 C584.439708,413.95 581.199708,413.05 577.419708,412 C577.419708,414.1 577.419708,415.9 577.419708,418 C581.199708,416.95 584.439708,416.05 588.219708,415 C588.219708,415 588.219708,415 588.219708,415 Z" stroke="#979797" stroke-width="2" stroke-linecap="square" fill="#979797"></path>
            <path d="M404.219715,455 L588.780285,455" id="Line-copy-3" stroke="#979797" stroke-width="2" stroke-linecap="square" fill="#979797" sketch:type="MSShapeGroup"></path>
            <path id="Line-copy-3-decoration-1" d="M588.219708,455 C584.439708,453.95 581.199708,453.05 577.419708,452 C577.419708,454.1 577.419708,455.9 577.419708,458 C581.199708,456.95 584.439708,456.05 588.219708,455 C588.219708,455 588.219708,455 588.219708,455 Z" stroke="#979797" stroke-width="2" stroke-linecap="square" fill="#979797"></path>
            <text id="Layout" sketch:type="MSTextLayer" font-family="Lato" font-size="18" font-weight="normal" letter-spacing="1.79999995" fill="#4A4A4A">
                <tspan x="403" y="303">Layout</tspan>
                <tspan x="403" y="325">DOM</tspan>
                <tspan x="403" y="347">Javascript...</tspan>
            </text>
            <text id="réseau" sketch:type="MSTextLayer" font-family="Lato" font-size="18" font-weight="normal" letter-spacing="1.79999995" fill="#4A4A4A">
                <tspan x="405" y="393">réseau</tspan>
            </text>
            <text id="CSS-Anim" sketch:type="MSTextLayer" font-family="Lato" font-size="18" font-weight="normal" letter-spacing="1.79999995" fill="#4A4A4A">
                <tspan x="405" y="433">CSS Anim</tspan>
            </text>
            <text id="&quot;threads&quot;-d'un-navig" sketch:type="MSTextLayer" font-family="Lato" font-size="18" font-style="italic" font-weight="normal" letter-spacing="1.79999995" fill="#9B9B9B">
                <tspan x="441" y="531">"threads" d'un navigateur moderne.</tspan>
            </text>
            <text id="&quot;Workers&quot;" sketch:type="MSTextLayer" font-family="Lato" font-size="18" font-weight="normal" letter-spacing="1.79999995" fill="#4A4A4A">
                <tspan x="403" y="472">"Workers"</tspan>
            </text>
            <text id="Chargement" sketch:type="MSTextLayer" font-family="Lato" font-size="16" font-weight="420" letter-spacing="1.79999995" fill="#303BA3">
                <tspan x="388" y="243">Chargement</tspan>
            </text>
            <text id="Fermeture" sketch:type="MSTextLayer" font-family="Lato" font-size="16" font-weight="420" letter-spacing="1.79999995" fill="#303BA3">
                <tspan x="736" y="243">Fermeture</tspan>
            </text>
            <text id="main-thread" sketch:type="MSTextLayer" font-family="Lato" font-size="16" font-style="italic" font-weight="473" letter-spacing="1.79999995" fill="#4990E2">
                <tspan x="714" y="303">main thread</tspan>
            </text>
            <text id="threads-&quot;parallèles&quot;" sketch:type="MSTextLayer" font-family="Lato" font-size="16" font-style="italic" font-weight="473" letter-spacing="1.79999995" fill="#4990E2">
                <tspan x="648" y="423">threads "parallèles"</tspan>
            </text>
            <path d="M826.719698,241.97578 L826.719698,241.97578 L826.719698,241.97578 Z" id="Path" stroke="#979797" sketch:type="MSShapeGroup"></path>
            <path d="M402.5,250.269231 L402.5,284.747592" id="Line" stroke="#979797" stroke-linecap="square" sketch:type="MSShapeGroup"></path>
            <path d="M801.5,250.269231 L801.5,284.747592" id="Line-copy" stroke="#979797" stroke-linecap="square" sketch:type="MSShapeGroup"></path>
            <path d="M626.072,426.824 C626.072,428.712009 626.239998,430.527991 626.576,432.272 C626.912002,434.016009 627.287998,435.751991 627.704,437.48 C628.120002,439.208009 628.495998,440.959991 628.832,442.736 C629.168002,444.512009 629.336,446.343991 629.336,448.232 C629.336,449.960009 629.056003,451.575992 628.496,453.08 C627.935997,454.584008 627.152005,455.895994 626.144,457.016 C625.135995,458.136006 623.920007,459.015997 622.496,459.656 C621.071993,460.296003 619.512008,460.616 617.816,460.616 L615.128,460.616 L615.128,460.232 C615.128,459.911998 615.319998,459.752 615.704,459.752 L617.816,459.752 C619.288007,459.752 620.663994,459.480003 621.944,458.936 C623.224006,458.391997 624.335995,457.616005 625.28,456.608 C626.224005,455.599995 626.959997,454.392007 627.488,452.984 C628.016003,451.575993 628.28,449.992009 628.28,448.232 C628.28,446.407991 628.112002,444.608009 627.776,442.832 C627.439998,441.055991 627.064002,439.280009 626.648,437.504 C626.231998,435.727991 625.856002,433.952009 625.52,432.176 C625.183998,430.399991 625.016,428.616009 625.016,426.824 C625.016,425.607994 625.231998,424.536005 625.664,423.608 C626.096002,422.679995 626.647997,421.880003 627.32,421.208 C627.992003,420.535997 628.743996,420.000002 629.576,419.6 C630.408004,419.199998 631.207996,418.920001 631.976,418.76 C631.207996,418.631999 630.408004,418.368002 629.576,417.968 C628.743996,417.567998 627.992003,417.032003 627.32,416.36 C626.647997,415.687997 626.096002,414.880005 625.664,413.936 C625.231998,412.991995 625.016,411.912006 625.016,410.696 C625.016,408.903991 625.183998,407.120009 625.52,405.344 C625.856002,403.567991 626.231998,401.792009 626.648,400.016 C627.064002,398.239991 627.439998,396.464009 627.776,394.688 C628.112002,392.911991 628.28,391.112009 628.28,389.288 C628.28,387.527991 628.016003,385.944007 627.488,384.536 C626.959997,383.127993 626.224005,381.920005 625.28,380.912 C624.335995,379.903995 623.224006,379.128003 621.944,378.584 C620.663994,378.039997 619.288007,377.768 617.816,377.768 L615.704,377.768 C615.319998,377.768 615.128,377.608002 615.128,377.288 L615.128,376.904 L617.816,376.904 C619.512008,376.904 621.071993,377.223997 622.496,377.864 C623.920007,378.504003 625.135995,379.383994 626.144,380.504 C627.152005,381.624006 627.935997,382.935992 628.496,384.44 C629.056003,385.944008 629.336,387.559991 629.336,389.288 C629.336,391.176009 629.168002,393.007991 628.832,394.784 C628.495998,396.560009 628.120002,398.311991 627.704,400.04 C627.287998,401.768009 626.912002,403.511991 626.576,405.272 C626.239998,407.032009 626.072,408.839991 626.072,410.696 C626.072,411.816006 626.279998,412.839995 626.696,413.768 C627.112002,414.696005 627.687996,415.495997 628.424,416.168 C629.160004,416.840003 630.031995,417.359998 631.04,417.728 C632.048005,418.096002 633.143994,418.28 634.328,418.28 L634.328,419.24 C633.143994,419.24 632.048005,419.431998 631.04,419.816 C630.031995,420.200002 629.160004,420.727997 628.424,421.4 C627.687996,422.072003 627.112002,422.871995 626.696,423.8 C626.279998,424.728005 626.072,425.735995 626.072,426.824 L626.072,426.824 Z" id="}" fill="#4990E2" sketch:type="MSShapeGroup"></path>
        </g>
    </g>
</svg>